<svg width="68" height="68" viewBox="0 0 68 68" fill="none" xmlns="http://www.w3.org/2000/svg">
<path d="M10.7405 3.76143C9.40884 3.78295 8.07566 4.22229 6.79522 5.22967C10.5267 4.1782 15.4073 8.05792 17.0773 12.551C12.6828 12.9315 6.78539 15.3657 4.80901 20.6246C10.8097 15.9236 15.0936 14.0494 17.7173 16.8204C15.0133 19.5074 12.7112 23.4417 13.1058 27.0549C14.2343 24.4648 17.1754 20.7853 20.2462 19.4904C20.2439 19.5232 20.2423 19.5559 20.2413 19.5887C20.2413 20.8767 21.2852 21.9209 22.5735 21.9209C22.9343 21.9203 23.2901 21.8359 23.6128 21.6745C23.9355 21.513 24.2164 21.2789 24.4333 20.9905C30.1553 29.2655 30.636 34.7981 30.6741 43.7187C30.8361 44.2188 31.1137 45.5326 31.8312 45.4882C32.1151 45.4683 32.8785 44.9307 33.0584 43.5085C32.971 33.9354 32.1736 27.4554 25.1364 17.8903C25.148 17.8324 25.1588 17.7733 25.1688 17.713C26.8648 14.3244 33.5543 16.0483 36.4853 16.7379C33.8354 13.5137 28.1096 12.3042 24.3649 12.733C25.2928 9.54688 29.8872 7.98022 34.9264 7.43649C30.2403 5.50646 23.8202 7.09117 20.5165 9.90441C18.0037 6.76605 14.3779 3.70313 10.7401 3.76157L10.7405 3.76143ZM42.0277 11.7275C40.113 11.6917 37.9629 12.431 35.6742 14.3413C43.0569 13.0453 44.4697 16.1922 44.3416 19.8194C40.6409 19.2928 35.645 20.1233 33.222 23.0717C35.247 22.5952 39.0648 22.2913 41.792 23.2842C41.5082 23.6795 41.3553 24.1536 41.3546 24.6402C41.3546 25.9281 42.3985 26.9721 43.6864 26.9724C43.8402 26.9715 43.9935 26.9555 44.1442 26.9246C40.2682 32.2544 38.3555 37.2056 37.5501 41.5028C38.3405 41.5884 39.128 41.6987 39.9115 41.8335C40.7438 37.4374 42.8542 32.2577 47.4582 26.5274C47.6766 26.7773 47.9458 26.9777 48.2479 27.1152C48.55 27.2526 48.878 27.324 49.21 27.3245C49.7593 27.3238 50.2908 27.1292 50.7107 26.775C51.1306 26.4208 51.4121 25.9297 51.5054 25.3884C54.7409 25.7076 58.5143 27.9932 60.3918 29.9295C59.5312 26.5637 56.2614 23.7888 52.9388 22.1832C55.596 19.5121 61.5128 18.4857 64.2442 18.6172C57.841 15.6634 52.6444 15.9243 49.6266 17.3903C48.3064 14.5153 45.57 11.7945 42.028 11.7277L42.0277 11.7275ZM2.39062 43.4299V45.8205H15.703C17.6343 44.9192 19.6608 44.108 21.7372 43.4299H2.39062ZM46.3104 43.4299C48.4003 44.108 50.4411 44.9191 52.3847 45.8205H65.6094V43.4299H46.3104ZM35.4386 43.734C35.1775 45.9934 33.8661 47.742 31.999 47.8731C29.7289 47.7289 28.7478 46.0662 28.3334 44.2291C23.9001 45.018 19.3986 46.6218 15.4094 48.6163C10.521 51.0607 6.41033 54.1251 4.12808 56.7488C4.77713 56.9458 5.49897 57.1636 6.38589 57.3922C8.54197 57.9477 11.1808 58.4308 12.6515 58.3091C13.8222 58.2122 15.0487 57.5676 16.422 56.8123C17.7953 56.057 19.32 55.1894 21.1812 55.0823C23.7046 54.9373 25.964 55.8407 28.0662 56.6814C30.1684 57.5223 32.1246 58.3026 34.0016 58.3051C35.1803 58.3067 36.44 57.8678 37.8306 57.3462C39.2211 56.8249 40.7394 56.2216 42.4714 56.1804C46.5748 56.0828 49.9955 58.2547 53.1443 58.3054C55.0828 58.3366 58.2615 57.826 60.8769 57.2927C62.0339 57.0568 63.0085 56.8318 63.8226 56.6406C61.6166 54.0651 57.5544 51.0372 52.6964 48.6214C47.3959 45.9856 41.167 44.0237 35.4388 43.7341L35.4386 43.734ZM22.4538 58.2982C20.104 58.4125 17.7456 59.4417 15.6512 60.4239C14.4543 60.9852 13.3478 61.5458 12.4413 61.9494C11.5348 62.353 10.7724 62.5549 10.625 62.5549C7.21703 62.5549 4.12476 60.8672 2.39062 59.7005V62.5522C4.42956 63.7285 7.33218 64.9455 10.625 64.9455C11.5903 64.9455 12.4193 64.5763 13.4138 64.1334C14.4083 63.6904 15.5122 63.1293 16.6661 62.5883C18.9739 61.5063 21.4981 60.5651 23.2901 60.6924C24.4496 60.7748 25.609 61.5246 26.9358 62.4867C28.263 63.4491 29.7331 64.6135 31.6839 64.93C34.4796 65.3836 37.1261 64.663 39.6154 63.9717C42.105 63.2806 44.4502 62.6178 46.6426 62.8156C47.4394 62.8873 48.1516 63.2941 49.1483 63.8202C50.145 64.3461 51.4319 64.9455 53.125 64.9455C55.1092 64.9455 58.2569 64.397 61.0323 63.8612C63.0355 63.4747 64.7776 63.0946 65.6094 62.9095V60.4671L65.6078 60.4604C65.6078 60.4602 63.3084 60.9874 60.5791 61.5142C57.8498 62.0409 54.6227 62.5549 53.125 62.5549C51.9703 62.5549 51.1851 62.1923 50.2642 61.7062C49.343 61.2201 48.2917 60.564 46.8576 60.4348C44.0615 60.1827 41.441 60.9838 38.9761 61.6682C36.5112 62.3526 34.2145 62.919 32.0664 62.5704C30.8902 62.3796 29.6904 61.5313 28.3393 60.5517C26.988 59.5718 25.4604 58.4502 23.46 58.3079C23.1147 58.2844 22.7747 58.2827 22.4538 58.2981V58.2982Z" fill="white"/>
</svg>
