<svg width="59" height="59" viewBox="0 0 59 59" fill="none" xmlns="http://www.w3.org/2000/svg">
<path d="M29.5 3.6875C19.3213 3.6875 11.0625 11.1213 11.0625 20.2812C11.0625 35.0312 29.5 55.3125 29.5 55.3125C29.5 55.3125 47.9375 35.0312 47.9375 20.2812C47.9375 11.1213 39.6787 3.6875 29.5 3.6875ZM29.5 29.5C28.0414 29.5 26.6155 29.0675 25.4027 28.2571C24.1899 27.4467 23.2446 26.2949 22.6864 24.9473C22.1282 23.5997 21.9821 22.1168 22.2667 20.6862C22.5513 19.2556 23.2537 17.9415 24.2851 16.9101C25.3165 15.8787 26.6306 15.1763 28.0612 14.8917C29.4918 14.6071 30.9747 14.7532 32.3223 15.3114C33.6699 15.8696 34.8217 16.8149 35.6321 18.0277C36.4425 19.2405 36.875 20.6664 36.875 22.125C36.8729 24.0803 36.0952 25.9549 34.7126 27.3376C33.3299 28.7202 31.4553 29.4979 29.5 29.5Z" fill="white"/>
</svg>
