<svg width="73" height="43" viewBox="0 0 83 53" fill="none" xmlns="http://www.w3.org/2000/svg">
<path d="M56.5909 22.7143C62.8536 22.7143 67.8714 17.6414 67.8714 11.3571C67.8714 5.07286 62.8536 0 56.5909 0C50.3282 0 45.2727 5.07286 45.2727 11.3571C45.2727 17.6414 50.3282 22.7143 56.5909 22.7143ZM26.4091 22.7143C32.6718 22.7143 37.6895 17.6414 37.6895 11.3571C37.6895 5.07286 32.6718 0 26.4091 0C20.1464 0 15.0909 5.07286 15.0909 11.3571C15.0909 17.6414 20.1464 22.7143 26.4091 22.7143ZM26.4091 30.2857C17.6186 30.2857 0 34.715 0 43.5357V53H52.8182V43.5357C52.8182 34.715 35.1995 30.2857 26.4091 30.2857ZM56.5909 30.2857C55.4968 30.2857 54.2518 30.3614 52.9314 30.475C57.3077 33.655 60.3636 37.9329 60.3636 43.5357V53H83V43.5357C83 34.715 65.3814 30.2857 56.5909 30.2857Z" fill="white"/>
</svg>
