<svg width="30" height="24" viewBox="0 0 30 24" fill="none" xmlns="http://www.w3.org/2000/svg">
<path d="M16.875 3.375C16.875 2.87772 16.6775 2.40081 16.3258 2.04917C15.9742 1.69754 15.4973 1.5 15 1.5C14.5027 1.5 14.0258 1.69754 13.6742 2.04917C13.3225 2.40081 13.125 2.87772 13.125 3.375C13.125 3.87228 13.3225 4.34919 13.6742 4.70083C14.0258 5.05246 14.5027 5.25 15 5.25C15.4973 5.25 15.9742 5.05246 16.3258 4.70083C16.6775 4.34919 16.875 3.87228 16.875 3.375ZM6.75 9.75C7.24728 9.75 7.72419 9.55246 8.07582 9.20083C8.42746 8.84919 8.625 8.37228 8.625 7.875C8.625 7.37772 8.42746 6.90081 8.07582 6.54917C7.72419 6.19754 7.24728 6 6.75 6C6.25272 6 5.77581 6.19754 5.42417 6.54917C5.07254 6.90081 4.875 7.37772 4.875 7.875C4.875 8.37228 5.07254 8.84919 5.42417 9.20083C5.77581 9.55246 6.25272 9.75 6.75 9.75ZM1.5 19.5C0.670312 19.5 0 20.1703 0 21C0 21.8297 0.670312 22.5 1.5 22.5H28.5C29.3297 22.5 30 21.8297 30 21C30 20.1703 29.3297 19.5 28.5 19.5H1.5ZM23.25 9.75C23.7473 9.75 24.2242 9.55246 24.5758 9.20083C24.9275 8.84919 25.125 8.37228 25.125 7.875C25.125 7.37772 24.9275 6.90081 24.5758 6.54917C24.2242 6.19754 23.7473 6 23.25 6C22.7527 6 22.2758 6.19754 21.9242 6.54917C21.5725 6.90081 21.375 7.37772 21.375 7.875C21.375 8.37228 21.5725 8.84919 21.9242 9.20083C22.2758 9.55246 22.7527 9.75 23.25 9.75ZM9.375 14.6953L10.6359 17.0344C10.9312 17.5828 11.6109 17.7844 12.1594 17.4938C12.7078 17.2031 12.9094 16.5188 12.6188 15.9703L10.9172 12.8063C10.9969 12.7266 11.0672 12.6375 11.1187 12.5344L12.375 10.1953V12.75C12.375 13.5797 13.0453 14.25 13.875 14.25H16.125C16.9547 14.25 17.625 13.5797 17.625 12.75V10.1953L18.8859 12.5344C18.9422 12.6375 19.0078 12.7266 19.0875 12.8063L17.3859 15.9703C17.0906 16.5188 17.2969 17.1984 17.8453 17.4938C18.3938 17.7891 19.0734 17.5828 19.3688 17.0344L20.625 14.6953V16.5C20.625 17.3297 21.2953 18 22.125 18H24.375C25.2047 18 25.875 17.3297 25.875 16.5V14.6953L27.1359 17.0344C27.4313 17.5828 28.1109 17.7844 28.6594 17.4938C29.2078 17.2031 29.4094 16.5188 29.1188 15.9703L27.3422 12.675C26.625 11.3391 25.2281 10.5047 23.7094 10.5047H22.7906C22.0266 10.5047 21.2953 10.7156 20.6625 11.0953L19.0875 8.175C18.3703 6.83906 16.9734 6.00469 15.4547 6.00469H14.5406C13.0219 6.00469 11.6297 6.83906 10.9078 8.175L9.33281 11.0953C8.7 10.7156 7.96875 10.5047 7.20469 10.5047H6.29062C4.77187 10.5047 3.37969 11.3391 2.65781 12.675L0.885937 15.9656C0.590625 16.5141 0.796875 17.1938 1.34531 17.4891C1.89375 17.7844 2.57344 17.5781 2.86875 17.0297L4.125 14.6953V16.5C4.125 17.3297 4.79531 18 5.625 18H7.875C8.70469 18 9.375 17.3297 9.375 16.5V14.6953Z" fill="#FFAAAA"/>
</svg>
