<svg width="30" height="30" viewBox="0 0 30 30" fill="none" xmlns="http://www.w3.org/2000/svg">
<rect width="30" height="30" fill="white"/>
<path d="M11.85 4.33615C9.73301 3.32541 6.77403 2.83029 2.8125 2.81271C2.43889 2.80764 2.07261 2.91658 1.7625 3.12502C1.50796 3.29707 1.2996 3.52903 1.15575 3.8005C1.01189 4.07197 0.936944 4.37463 0.937503 4.68185V21.4455C0.937503 22.5787 1.74375 23.4336 2.8125 23.4336C6.97676 23.4336 11.1539 23.8227 13.6559 26.1875C13.6901 26.22 13.7331 26.2417 13.7796 26.25C13.826 26.2582 13.8739 26.2527 13.9172 26.2339C13.9606 26.2152 13.9974 26.1842 14.0233 26.1447C14.0491 26.1052 14.0627 26.0589 14.0625 26.0117V6.2592C14.0626 6.12593 14.0341 5.99419 13.9789 5.87289C13.9237 5.75159 13.8431 5.64355 13.7426 5.55607C13.1695 5.06613 12.5329 4.65579 11.85 4.33615ZM28.2375 3.12326C27.9272 2.91534 27.5609 2.80701 27.1875 2.81271C23.226 2.83029 20.267 3.32307 18.15 4.33615C17.4672 4.65521 16.8304 5.06475 16.2568 5.55373C16.1565 5.64136 16.0761 5.74944 16.021 5.87072C15.966 5.992 15.9375 6.12366 15.9375 6.25685V26.0106C15.9375 26.0559 15.9508 26.1003 15.9759 26.1381C16.001 26.1758 16.0367 26.2054 16.0785 26.223C16.1203 26.2406 16.1664 26.2454 16.2109 26.2369C16.2555 26.2284 16.2965 26.2069 16.3289 26.1752C17.833 24.6811 20.4727 23.4319 27.1898 23.4324C27.6871 23.4324 28.164 23.2349 28.5157 22.8833C28.8673 22.5316 29.0648 22.0547 29.0648 21.5574V4.68244C29.0655 4.3746 28.9904 4.07133 28.8461 3.79941C28.7018 3.52748 28.4928 3.29526 28.2375 3.12326Z" fill="#FFAAAA"/>
</svg>
