<svg width="28" height="28" viewBox="0 0 28 28" fill="none" xmlns="http://www.w3.org/2000/svg">
<path d="M6.90654 12.3199H8.40006V21.2799H10.6401V13.4399H12.8801V21.2799H15.1201V13.4399H17.3601V21.2799H19.6001V12.3199H21.093C21.5052 12.3199 21.8401 11.9077 21.8401 11.5364C21.8401 11.3119 21.7163 11.0587 21.5293 10.9367L21.5304 10.9075L21.5186 10.8868L21.5937 10.8683L14.5601 7.2457V6.18618C15.6801 6.77922 16.7726 5.75778 18.4801 6.3721V4.03186C16.7715 3.4181 15.6801 4.43898 14.5601 3.84594V3.69586C14.5601 3.5105 14.2067 3.35986 14.0001 3.35986C13.7934 3.35986 13.4401 3.5105 13.4401 3.69586V7.2457L6.40702 10.8611L6.55878 10.8728L6.72006 10.879V10.8801C6.16006 11.0022 6.2855 11.3113 6.2855 11.5359C6.28494 11.9077 6.49438 12.3199 6.90654 12.3199ZM7.84006 21.8399L6.16006 23.5199H21.8401L20.1601 21.8399H7.84006ZM20.1601 12.8799V21.2799H20.6557L20.8746 21.5895L22.3676 22.989L22.8957 23.5199H27.4401V12.8799H20.1601ZM23.5201 19.5999H21.8401V17.9199H23.5201V19.5999ZM23.5201 16.2399H21.8401V14.5599H23.5201V16.2399ZM25.7601 19.5999H24.6401V17.9199H25.7601V19.5999ZM25.7601 16.2399H24.6401V14.5599H25.7601V16.2399ZM7.3439 21.2799H7.84006V12.8799H0.560059V23.5199H5.1039L5.63142 23.045L7.12494 21.589L7.3439 21.2799ZM3.36006 19.5999H2.24006V17.9199H3.36006V19.5999ZM3.36006 16.2399H2.24006V14.5599H3.36006V16.2399ZM6.16006 19.5999H4.48006V17.9199H6.16006V19.5999ZM6.16006 16.2399H4.48006V14.5599H6.16006V16.2399Z" fill="#FFAAAA"/>
</svg>
