<svg width="23" height="21" viewBox="0 0 23 21" fill="none" xmlns="http://www.w3.org/2000/svg">
<path d="M0 7.075C0 6.52272 0.447715 6.075 1 6.075H4.16375C4.71604 6.075 5.16375 6.52271 5.16375 7.075V19.25C5.16375 19.8023 4.71603 20.25 4.16375 20.25H0.999999C0.447714 20.25 0 19.8023 0 19.25V7.075ZM8.0325 0.999999C8.0325 0.447715 8.48022 0 9.0325 0H13.3438C13.896 0 14.3438 0.447715 14.3438 1V19.25C14.3438 19.8023 13.896 20.25 13.3438 20.25H9.0325C8.48022 20.25 8.0325 19.8023 8.0325 19.25V0.999999ZM17.2125 12.5714C17.2125 12.0191 17.6602 11.5714 18.2125 11.5714H21.95C22.5023 11.5714 22.95 12.0191 22.95 12.5714V19.25C22.95 19.8023 22.5023 20.25 21.95 20.25H18.2125C17.6602 20.25 17.2125 19.8023 17.2125 19.25V12.5714Z" fill="#FFAAAA"/>
</svg>
