<svg width="27" height="27" viewBox="0 0 27 27" fill="none" xmlns="http://www.w3.org/2000/svg">
<path fill-rule="evenodd" clip-rule="evenodd" d="M13.8162 12.2021L18.1786 7.83965C18.3594 7.65882 18.461 7.41359 18.461 7.1579C18.461 6.9022 18.3594 6.65698 18.1786 6.47615L12.3852 0.68272C12.2044 0.501945 11.9591 0.400391 11.7034 0.400391C11.4478 0.400391 11.2025 0.501945 11.0217 0.68272L6.65927 5.04322C6.56947 5.13279 6.49822 5.2392 6.44961 5.35636C6.401 5.47351 6.37597 5.5991 6.37597 5.72593C6.37597 5.85277 6.401 5.97836 6.44961 6.09551C6.49822 6.21267 6.56947 6.31908 6.65927 6.40865L12.4527 12.2021C12.6335 12.3829 12.8788 12.4844 13.1344 12.4844C13.3901 12.4844 13.6354 12.3829 13.8162 12.2021ZM4.38163 10.8714H7.71227L10.6283 13.7854H8.27541C7.95573 13.7854 7.64914 13.9124 7.4231 14.1385C7.19705 14.3645 7.07006 14.6711 7.07006 14.9908C7.07006 15.3105 7.19705 15.6171 7.4231 15.8431C7.64914 16.0692 7.95573 16.1961 8.27541 16.1961H17.6676C17.9872 16.1961 18.2938 16.0692 18.5199 15.8431C18.7459 15.6171 18.8729 15.3105 18.8729 14.9908C18.8729 14.6711 18.7459 14.3645 18.5199 14.1385C18.2938 13.9124 17.9872 13.7854 17.6676 13.7854H15.6406L18.5547 10.8694H21.5575C22.3247 10.8694 23.0605 11.1742 23.603 11.7167C24.1456 12.2592 24.4503 12.9951 24.4503 13.7623V18.8094H1.48877V13.7623C1.48877 12.9951 1.79355 12.2592 2.33607 11.7167C2.87858 11.1742 3.61439 10.8714 4.38163 10.8714ZM24.4523 21.2201H1.48877V25.9837C1.48877 26.2394 1.59036 26.4847 1.7712 26.6655C1.95204 26.8463 2.19731 26.9479 2.45306 26.9479H23.488C23.7437 26.9479 23.989 26.8463 24.1698 26.6655C24.3507 26.4847 24.4523 26.2394 24.4523 25.9837V21.2201Z" fill="#FFAAAA"/>
</svg>
